<svg xmlns="http://www.w3.org/2000/svg" xmlns:xlink="http://www.w3.org/1999/xlink" viewBox="0 0 1366 768"><defs><style>.cls-1{fill:url(#linear-gradient);}.cls-2{fill:url(#radial-gradient);}.cls-3{fill:url(#radial-gradient-2);}.cls-4{fill:url(#radial-gradient-3);}.cls-5{fill:url(#radial-gradient-4);}.cls-6{fill:url(#radial-gradient-5);}.cls-7{fill:url(#radial-gradient-6);}.cls-8{fill:url(#radial-gradient-7);}.cls-9{fill:url(#radial-gradient-8);}.cls-10{fill:url(#radial-gradient-9);}.cls-11{fill:url(#radial-gradient-10);}.cls-12{fill:url(#radial-gradient-11);}.cls-13{fill:url(#radial-gradient-12);}.cls-14{fill:url(#radial-gradient-13);}.cls-15{fill:url(#radial-gradient-14);}.cls-16{fill:url(#radial-gradient-15);}.cls-17{fill:url(#radial-gradient-16);}.cls-18{fill:url(#radial-gradient-17);}.cls-19{fill:url(#radial-gradient-18);}.cls-20{fill:url(#radial-gradient-19);}.cls-21{fill:url(#radial-gradient-20);}</style><linearGradient id="linear-gradient" x1="683" y1="751.6" x2="683" y2="-16.4" gradientUnits="userSpaceOnUse"><stop offset="0" stop-color="#6a0067"/><stop offset="0.08" stop-color="#500053"/><stop offset="0.18" stop-color="#390041"/><stop offset="0.29" stop-color="#270033"/><stop offset="0.42" stop-color="#1a0029"/><stop offset="0.6" stop-color="#130024"/><stop offset="0.99" stop-color="#102"/></linearGradient><radialGradient id="radial-gradient" cx="177.33" cy="126.77" r="9.94" gradientUnits="userSpaceOnUse"><stop offset="0" stop-color="#efe741"/><stop offset="0.03" stop-color="#eee53a"/><stop offset="0.14" stop-color="#ebe029"/><stop offset="0.28" stop-color="#e9dc1e"/><stop offset="0.47" stop-color="#e8da17"/><stop offset="0.99" stop-color="#e8d915"/></radialGradient><radialGradient id="radial-gradient-2" cx="548.38" cy="230.21" r="9.94" xlink:href="#radial-gradient"/><radialGradient id="radial-gradient-3" cx="586.46" cy="89.2" r="9.94" xlink:href="#radial-gradient"/><radialGradient id="radial-gradient-4" cx="497.43" cy="161.25" r="9.94" xlink:href="#radial-gradient"/><radialGradient id="radial-gradient-5" cx="440.82" cy="78.91" r="9.94" xlink:href="#radial-gradient"/><radialGradient id="radial-gradient-6" cx="269.45" cy="192.64" r="9.94" xlink:href="#radial-gradient"/><radialGradient id="radial-gradient-7" cx="337.38" cy="120.59" r="9.94" xlink:href="#radial-gradient"/><radialGradient id="radial-gradient-8" cx="653.88" cy="178.23" r="9.94" xlink:href="#radial-gradient"/><radialGradient id="radial-gradient-9" cx="88.81" cy="84.05" r="9.94" xlink:href="#radial-gradient"/><radialGradient id="radial-gradient-10" cx="125.35" cy="219.91" r="9.94" xlink:href="#radial-gradient"/><radialGradient id="radial-gradient-11" cx="841.33" cy="102.77" r="9.94" xlink:href="#radial-gradient"/><radialGradient id="radial-gradient-12" cx="1212.38" cy="206.21" r="9.94" xlink:href="#radial-gradient"/><radialGradient id="radial-gradient-13" cx="1250.46" cy="65.2" r="9.94" xlink:href="#radial-gradient"/><radialGradient id="radial-gradient-14" cx="1161.43" cy="137.25" r="9.94" xlink:href="#radial-gradient"/><radialGradient id="radial-gradient-15" cx="1104.82" cy="54.91" r="9.94" xlink:href="#radial-gradient"/><radialGradient id="radial-gradient-16" cx="933.45" cy="168.64" r="9.94" xlink:href="#radial-gradient"/><radialGradient id="radial-gradient-17" cx="1001.38" cy="96.59" r="9.94" xlink:href="#radial-gradient"/><radialGradient id="radial-gradient-18" cx="1317.88" cy="154.23" r="9.94" xlink:href="#radial-gradient"/><radialGradient id="radial-gradient-19" cx="752.81" cy="60.05" r="9.94" xlink:href="#radial-gradient"/><radialGradient id="radial-gradient-20" cx="789.35" cy="195.91" r="9.94" xlink:href="#radial-gradient"/></defs><title>Layer 1 (2)</title><g id="Layer_2" data-name="Layer 2"><g id="Layer_1-2" data-name="Layer 1"><rect class="cls-1" width="1366" height="768"/><polygon class="cls-2" points="187.1 132.39 180.09 131.56 175.43 136.87 174.05 129.94 167.56 127.15 173.72 123.7 174.37 116.66 179.56 121.46 186.45 119.9 183.49 126.32 187.1 132.39"/><polygon class="cls-3" points="558.15 235.83 551.13 235 546.48 240.31 545.1 233.38 538.61 230.59 544.77 227.14 545.42 220.1 550.61 224.9 557.5 223.34 554.54 229.76 558.15 235.83"/><polygon class="cls-4" points="596.23 94.82 589.22 93.99 584.56 99.3 583.18 92.37 576.69 89.58 582.85 86.13 583.5 79.09 588.69 83.89 595.58 82.33 592.62 88.75 596.23 94.82"/><polygon class="cls-5" points="507.2 166.87 500.19 166.04 495.53 171.35 494.15 164.42 487.66 161.63 493.82 158.18 494.47 151.14 499.66 155.94 506.55 154.38 503.59 160.8 507.2 166.87"/><polygon class="cls-6" points="450.59 84.53 443.58 83.7 438.92 89.01 437.54 82.08 431.05 79.29 437.21 75.84 437.86 68.8 443.05 73.6 449.94 72.04 446.98 78.46 450.59 84.53"/><polygon class="cls-7" points="279.22 198.26 272.21 197.43 267.55 202.74 266.17 195.81 259.68 193.02 265.84 189.57 266.49 182.53 271.68 187.33 278.57 185.77 275.61 192.19 279.22 198.26"/><polygon class="cls-8" points="347.15 126.21 340.14 125.38 335.48 130.69 334.1 123.77 327.61 120.97 333.77 117.52 334.42 110.49 339.61 115.28 346.5 113.73 343.54 120.14 347.15 126.21"/><polygon class="cls-9" points="663.65 183.85 656.63 183.02 651.97 188.33 650.6 181.4 644.11 178.61 650.27 175.16 650.92 168.13 656.11 172.92 663 171.36 660.04 177.78 663.65 183.85"/><polygon class="cls-10" points="98.59 89.67 91.57 88.85 86.91 94.15 85.53 87.23 79.04 84.44 85.21 80.98 85.86 73.95 91.04 78.74 97.93 77.19 94.98 83.6 98.59 89.67"/><polygon class="cls-11" points="135.13 225.54 128.11 224.71 123.45 230.02 122.07 223.09 115.58 220.3 121.74 216.84 122.39 209.81 127.58 214.6 134.47 213.05 131.52 219.47 135.13 225.54"/><polygon class="cls-12" points="851.1 108.39 844.09 107.56 839.43 112.87 838.05 105.94 831.56 103.15 837.72 99.7 838.37 92.66 843.56 97.46 850.45 95.9 847.49 102.32 851.1 108.39"/><polygon class="cls-13" points="1222.15 211.83 1215.13 211 1210.47 216.31 1209.1 209.38 1202.61 206.59 1208.77 203.14 1209.42 196.1 1214.61 200.9 1221.5 199.34 1218.54 205.76 1222.15 211.83"/><polygon class="cls-14" points="1260.23 70.82 1253.22 69.99 1248.56 75.3 1247.18 68.37 1240.69 65.58 1246.85 62.13 1247.5 55.09 1252.69 59.89 1259.58 58.33 1256.62 64.75 1260.23 70.82"/><polygon class="cls-15" points="1171.2 142.87 1164.19 142.04 1159.53 147.35 1158.15 140.42 1151.66 137.63 1157.82 134.18 1158.47 127.14 1163.66 131.94 1170.55 130.38 1167.59 136.8 1171.2 142.87"/><polygon class="cls-16" points="1114.59 60.53 1107.58 59.7 1102.92 65.01 1101.54 58.08 1095.05 55.29 1101.21 51.84 1101.86 44.8 1107.05 49.6 1113.94 48.04 1110.98 54.46 1114.59 60.53"/><polygon class="cls-17" points="943.22 174.26 936.21 173.43 931.55 178.74 930.17 171.81 923.68 169.02 929.84 165.57 930.49 158.53 935.68 163.33 942.57 161.77 939.61 168.19 943.22 174.26"/><polygon class="cls-18" points="1011.15 102.21 1004.14 101.38 999.48 106.69 998.1 99.77 991.61 96.97 997.77 93.52 998.42 86.49 1003.61 91.28 1010.5 89.73 1007.54 96.14 1011.15 102.21"/><polygon class="cls-19" points="1327.65 159.85 1320.63 159.02 1315.97 164.33 1314.6 157.4 1308.11 154.61 1314.27 151.16 1314.92 144.13 1320.11 148.92 1327 147.36 1324.04 153.78 1327.65 159.85"/><polygon class="cls-20" points="762.59 65.67 755.57 64.85 750.91 70.15 749.53 63.23 743.04 60.44 749.21 56.98 749.86 49.95 755.04 54.74 761.93 53.19 758.98 59.6 762.59 65.67"/><polygon class="cls-21" points="799.13 201.54 792.11 200.71 787.45 206.02 786.07 199.09 779.58 196.3 785.74 192.84 786.39 185.81 791.58 190.6 798.47 189.05 795.52 195.47 799.13 201.54"/></g></g></svg>