<svg xmlns="http://www.w3.org/2000/svg" xmlns:xlink="http://www.w3.org/1999/xlink" viewBox="0 0 1366 768"><defs><style>.cls-1{fill:url(#linear-gradient);}.cls-2{fill:url(#radial-gradient);}.cls-3{fill:url(#radial-gradient-2);}.cls-4{fill:url(#radial-gradient-3);}.cls-5{fill:url(#radial-gradient-4);}.cls-6{fill:url(#radial-gradient-5);}.cls-7{fill:url(#radial-gradient-6);}.cls-8{fill:url(#radial-gradient-7);}.cls-9{fill:url(#radial-gradient-8);}.cls-10{fill:url(#radial-gradient-9);}.cls-11{fill:url(#radial-gradient-10);}.cls-12{fill:url(#radial-gradient-11);}.cls-13{fill:url(#radial-gradient-12);}.cls-14{fill:url(#radial-gradient-13);}.cls-15{fill:url(#radial-gradient-14);}.cls-16{fill:url(#radial-gradient-15);}.cls-17{fill:url(#radial-gradient-16);}.cls-18{fill:url(#radial-gradient-17);}.cls-19{fill:url(#radial-gradient-18);}.cls-20{fill:url(#radial-gradient-19);}.cls-21{fill:url(#radial-gradient-20);}.cls-22{fill:url(#radial-gradient-21);}.cls-23{fill:url(#radial-gradient-22);}.cls-24{fill:url(#radial-gradient-23);}.cls-25{fill:url(#radial-gradient-24);}.cls-26{fill:url(#radial-gradient-25);}.cls-27{fill:url(#radial-gradient-26);}.cls-28{fill:url(#radial-gradient-27);}</style><linearGradient id="linear-gradient" x1="683" y1="16.4" x2="683" y2="784.4" gradientTransform="matrix(1, 0, 0, -1, 0, 768)" gradientUnits="userSpaceOnUse"><stop offset="0" stop-color="#6a0067"/><stop offset="0.08" stop-color="#500053"/><stop offset="0.18" stop-color="#390041"/><stop offset="0.29" stop-color="#270033"/><stop offset="0.42" stop-color="#1a0029"/><stop offset="0.6" stop-color="#130024"/><stop offset="0.99" stop-color="#102"/></linearGradient><radialGradient id="radial-gradient" cx="58.44" cy="694.65" r="7.52" gradientTransform="matrix(1, 0, 0, -1, 0, 768)" gradientUnits="userSpaceOnUse"><stop offset="0" stop-color="#efe741"/><stop offset="0.03" stop-color="#eee53a"/><stop offset="0.14" stop-color="#ebe029"/><stop offset="0.28" stop-color="#e9dc1e"/><stop offset="0.47" stop-color="#e8da17"/><stop offset="0.99" stop-color="#e8d915"/></radialGradient><radialGradient id="radial-gradient-2" cx="339.01" cy="616.44" r="7.52" xlink:href="#radial-gradient"/><radialGradient id="radial-gradient-3" cx="367.8" cy="723.06" r="7.52" xlink:href="#radial-gradient"/><radialGradient id="radial-gradient-4" cx="300.48" cy="668.58" r="7.52" xlink:href="#radial-gradient"/><radialGradient id="radial-gradient-5" cx="257.67" cy="730.84" r="7.52" xlink:href="#radial-gradient"/><radialGradient id="radial-gradient-6" cx="128.09" cy="644.84" r="7.52" xlink:href="#radial-gradient"/><radialGradient id="radial-gradient-7" cx="179.46" cy="699.32" r="7.51" xlink:href="#radial-gradient"/><radialGradient id="radial-gradient-8" cx="418.78" cy="655.74" r="7.51" xlink:href="#radial-gradient"/><radialGradient id="radial-gradient-9" cx="19.14" cy="624.22" r="7.52" xlink:href="#radial-gradient"/><radialGradient id="radial-gradient-10" cx="560.52" cy="712.8" r="7.52" xlink:href="#radial-gradient"/><radialGradient id="radial-gradient-11" cx="841.09" cy="634.58" r="7.52" xlink:href="#radial-gradient"/><radialGradient id="radial-gradient-12" cx="869.88" cy="741.21" r="7.52" xlink:href="#radial-gradient"/><radialGradient id="radial-gradient-13" cx="802.56" cy="686.73" r="7.52" xlink:href="#radial-gradient"/><radialGradient id="radial-gradient-14" cx="759.76" cy="748.99" r="7.52" xlink:href="#radial-gradient"/><radialGradient id="radial-gradient-15" cx="630.18" cy="662.99" r="7.52" xlink:href="#radial-gradient"/><radialGradient id="radial-gradient-16" cx="681.54" cy="717.47" r="7.51" xlink:href="#radial-gradient"/><radialGradient id="radial-gradient-17" cx="920.86" cy="673.88" r="7.51" xlink:href="#radial-gradient"/><radialGradient id="radial-gradient-18" cx="493.59" cy="745.1" r="7.52" xlink:href="#radial-gradient"/><radialGradient id="radial-gradient-19" cx="521.22" cy="642.36" r="7.52" xlink:href="#radial-gradient"/><radialGradient id="radial-gradient-20" cx="1017.81" cy="703.62" r="7.52" xlink:href="#radial-gradient"/><radialGradient id="radial-gradient-21" cx="1298.38" cy="625.41" r="7.52" xlink:href="#radial-gradient"/><radialGradient id="radial-gradient-22" cx="1327.17" cy="732.03" r="7.52" xlink:href="#radial-gradient"/><radialGradient id="radial-gradient-23" cx="1259.85" cy="677.55" r="7.52" xlink:href="#radial-gradient"/><radialGradient id="radial-gradient-24" cx="1217.05" cy="739.81" r="7.52" xlink:href="#radial-gradient"/><radialGradient id="radial-gradient-25" cx="1087.46" cy="653.82" r="7.52" xlink:href="#radial-gradient"/><radialGradient id="radial-gradient-26" cx="1138.83" cy="708.29" r="7.51" xlink:href="#radial-gradient"/><radialGradient id="radial-gradient-27" cx="978.51" cy="633.19" r="7.52" xlink:href="#radial-gradient"/></defs><title>bg</title><g id="Layer_1" data-name="Layer 1"><rect class="cls-1" width="1366" height="768"/></g><g id="Layer_2" data-name="Layer 2"><g id="Layer_2-2" data-name="Layer 2"><g id="Layer_1-2" data-name="Layer 1-2"><polygon class="cls-2" points="65.82 77.6 60.52 76.97 57 80.99 55.96 75.75 51.05 73.64 55.71 71.03 56.2 65.71 60.12 69.34 65.33 68.16 63.09 73.01 65.82 77.6"/><polygon class="cls-3" points="346.39 155.82 341.08 155.19 337.57 159.21 336.53 153.97 331.62 151.86 336.28 149.25 336.77 143.92 340.69 147.55 345.9 146.37 343.66 151.23 346.39 155.82"/><polygon class="cls-4" points="375.19 49.19 369.89 48.57 366.36 52.58 365.32 47.34 360.41 45.23 365.07 42.62 365.56 37.3 369.49 40.93 374.7 39.75 372.46 44.6 375.19 49.19"/><polygon class="cls-5" points="307.87 103.67 302.57 103.05 299.04 107.06 298 101.82 293.09 99.71 297.75 97.1 298.24 91.78 302.17 95.41 307.38 94.23 305.14 99.08 307.87 103.67"/><polygon class="cls-6" points="265.06 41.41 259.76 40.78 256.24 44.8 255.19 39.56 250.29 37.45 254.94 34.84 255.44 29.52 259.36 33.15 264.57 31.97 262.33 36.82 265.06 41.41"/><polygon class="cls-7" points="135.48 127.41 130.18 126.78 126.66 130.8 125.61 125.56 120.7 123.45 125.36 120.84 125.86 115.52 129.78 119.14 134.99 117.97 132.75 122.82 135.48 127.41"/><polygon class="cls-8" points="186.85 72.93 181.54 72.3 178.02 76.32 176.98 71.08 172.07 68.97 176.73 66.36 177.22 61.04 181.14 64.66 186.35 63.49 184.12 68.34 186.85 72.93"/><polygon class="cls-9" points="426.17 116.51 420.86 115.89 417.34 119.9 416.3 114.66 411.39 112.55 416.05 109.94 416.54 104.63 420.47 108.25 425.68 107.07 423.44 111.92 426.17 116.51"/><polygon class="cls-10" points="26.53 148.04 21.22 147.41 17.7 151.43 16.65 146.19 11.74 144.07 16.4 141.46 16.89 136.14 20.82 139.76 26.03 138.59 23.8 143.45 26.53 148.04"/><polygon class="cls-11" points="567.91 59.45 562.61 58.83 559.08 62.84 558.04 57.6 553.13 55.49 557.79 52.88 558.28 47.56 562.21 51.19 567.42 50.01 565.18 54.86 567.91 59.45"/><polygon class="cls-12" points="848.48 137.67 843.17 137.04 839.65 141.06 838.61 135.82 833.7 133.71 838.36 131.1 838.85 125.78 842.78 129.41 847.99 128.23 845.75 133.08 848.48 137.67"/><polygon class="cls-13" points="877.27 31.05 871.97 30.42 868.45 34.43 867.4 29.19 862.5 27.08 867.15 24.48 867.65 19.15 871.57 22.78 876.78 21.6 874.54 26.46 877.27 31.05"/><polygon class="cls-14" points="809.95 85.53 804.65 84.9 801.13 88.91 800.08 83.67 795.18 81.56 799.83 78.95 800.33 73.63 804.25 77.26 809.46 76.08 807.22 80.94 809.95 85.53"/><polygon class="cls-15" points="767.15 23.27 761.85 22.64 758.32 26.65 757.28 21.41 752.37 19.3 757.03 16.69 757.52 11.37 761.45 15 766.65 13.82 764.42 18.68 767.15 23.27"/><polygon class="cls-16" points="637.57 109.26 632.26 108.63 628.74 112.65 627.7 107.41 622.79 105.3 627.45 102.69 627.94 97.37 631.86 101 637.07 99.82 634.84 104.67 637.57 109.26"/><polygon class="cls-17" points="688.93 54.78 683.63 54.15 680.11 58.17 679.06 52.94 674.15 50.82 678.81 48.21 679.3 42.9 683.23 46.52 688.44 45.34 686.2 50.19 688.93 54.78"/><polygon class="cls-18" points="928.25 98.37 922.94 97.74 919.42 101.75 918.38 96.51 913.48 94.4 918.13 91.8 918.63 86.48 922.55 90.1 927.76 88.92 925.52 93.78 928.25 98.37"/><polygon class="cls-19" points="500.98 27.15 495.67 26.53 492.15 30.54 491.11 25.31 486.2 23.2 490.86 20.58 491.36 15.27 495.27 18.89 500.48 17.71 498.25 22.56 500.98 27.15"/><polygon class="cls-20" points="528.61 129.89 523.3 129.26 519.78 133.28 518.74 128.04 513.83 125.93 518.49 123.31 518.98 118 522.9 121.62 528.11 120.44 525.88 125.3 528.61 129.89"/></g></g><g id="Layer_2-3" data-name="Layer 2"><g id="Layer_1-2-2" data-name="Layer 1-2"><polygon class="cls-21" points="1025.19 68.63 1019.89 68 1016.37 72.02 1015.33 66.78 1010.42 64.67 1015.08 62.06 1015.57 56.74 1019.49 60.37 1024.7 59.19 1022.47 64.04 1025.19 68.63"/><polygon class="cls-22" points="1305.76 146.85 1300.46 146.22 1296.94 150.23 1295.9 144.99 1290.99 142.88 1295.65 140.28 1296.14 134.95 1300.06 138.58 1305.27 137.4 1303.04 142.26 1305.76 146.85"/><polygon class="cls-23" points="1334.56 40.22 1329.26 39.59 1325.73 43.61 1324.69 38.37 1319.78 36.26 1324.44 33.65 1324.93 28.33 1328.86 31.96 1334.07 30.78 1331.83 35.63 1334.56 40.22"/><polygon class="cls-24" points="1267.24 94.7 1261.94 94.08 1258.41 98.09 1257.37 92.85 1252.46 90.74 1257.12 88.13 1257.61 82.81 1261.54 86.44 1266.75 85.26 1264.51 90.11 1267.24 94.7"/><polygon class="cls-25" points="1224.43 32.44 1219.13 31.81 1215.61 35.83 1214.57 30.59 1209.66 28.48 1214.32 25.87 1214.81 20.55 1218.73 24.18 1223.94 23 1221.7 27.85 1224.43 32.44"/><polygon class="cls-26" points="1094.85 118.44 1089.55 117.81 1086.03 121.83 1084.98 116.58 1080.08 114.48 1084.73 111.87 1085.22 106.54 1089.15 110.17 1094.36 108.99 1092.12 113.85 1094.85 118.44"/><polygon class="cls-27" points="1146.22 63.96 1140.92 63.33 1137.39 67.34 1136.35 62.11 1131.44 59.99 1136.1 57.39 1136.59 52.07 1140.52 55.69 1145.72 54.52 1143.49 59.37 1146.22 63.96"/><polygon class="cls-28" points="985.9 139.07 980.59 138.44 977.07 142.45 976.02 137.21 971.12 135.1 975.77 132.49 976.26 127.17 980.19 130.79 985.4 129.62 983.17 134.48 985.9 139.07"/></g></g></g></svg>